<?xml version="1.0" encoding="UTF-8"?>
<svg width="100px" height="100px" viewBox="0 0 100 100" version="1.1" xmlns="http://www.w3.org/2000/svg" xmlns:xlink="http://www.w3.org/1999/xlink">
    <!-- Generator: Sketch 54.1 (76490) - https://sketchapp.com -->
    <title>Group 6</title>
    <desc>Created with Sketch.</desc>
    <g id="Page-1" stroke="none" stroke-width="1" fill="none" fill-rule="evenodd">
        <g id="UI-Home-Light" transform="translate(-625.000000, -219.000000)">
            <g id="Group-6" transform="translate(625.000000, 219.000000)">
                <g id="Group-7" transform="translate(0.000000, 0.000000)">
                    <circle id="Oval" fill="#F1F1FA" cx="50" cy="50" r="50"></circle>
                    <g id="hotel" transform="translate(19.000000, 31.000000)" fill-rule="nonzero" stroke="#4949BE">
                        <path d="M6.50330552,11.7333671 C6.50330552,8.54086577 9.19688117,5.94344343 12.5078577,5.94344343 L25.986639,5.94344343 C28.079628,5.94344343 29.9249999,6.98210836 31.0000657,8.55213908 C32.0752628,6.9819817 33.9205033,5.94344343 36.0134924,5.94344343 L49.492405,5.94344343 C52.8032502,5.94344343 55.4968258,8.54086577 55.4968258,11.7333671 L55.4968258,12 L57,12 L57,6.35396941 C57,2.85037525 54.0439633,0 50.4104933,0 L11.5895067,0 C7.95603671,0 5,2.85037525 5,6.35396941 L5,12 L6.50317416,12 L6.50317416,11.7333671 L6.50330552,11.7333671 Z" id="Path"></path>
                        <path d="M60.4936926,15 L2.50617696,15 C1.12426386,15 0,16.1288734 0,17.5164524 L0,32.1250013 C0,33.5125803 1.12426386,34.6414537 2.50617696,34.6414537 L3.54942807,34.6414537 L2.31675585,38.1346998 C2.05988934,38.8624813 2.43938384,39.6615214 3.16406308,39.91931 C3.31786989,39.973933 3.47480763,40 3.62913626,40 C4.20222644,40 4.73918049,39.6418728 4.94151668,39.0683978 L6.50371901,34.6413227 L56.496281,34.6413227 L58.0584833,39.0683978 C58.2608195,39.6418728 58.7976431,40 59.3708637,40 C59.5251924,40 59.6821301,39.973933 59.8359369,39.91931 C60.5607466,39.6613904 60.9401107,38.8623503 60.6832442,38.1346998 L59.4505719,34.6414537 L60.493823,34.6414537 C61.8757361,34.6414537 63,33.5125803 63,32.1250013 L63,17.5164524 C63,16.1288734 61.8757361,15 60.4936926,15 Z" id="Path"></path>
                        <path d="M36.2198552,9 C34.4444679,9 33,10.6516548 33,12.68188 L33,13 L53,13 L53,12.68188 C53,10.6516548 51.5556642,9 49.780277,9 L36.2198552,9 Z" id="Path"></path>
                        <path d="M13.2198552,9 C11.4443358,9 10,10.651806 10,12.6820311 L10,13 L30,13 L30,12.68188 C30,10.6516548 28.5556642,9 26.7801448,9 L13.2198552,9 L13.2198552,9 Z" id="Path"></path>
                    </g>
                </g>
            </g>
        </g>
    </g>
</svg>