<?xml version="1.0" encoding="UTF-8"?>
<svg width="71px" height="71px" viewBox="0 0 71 71" version="1.1" xmlns="http://www.w3.org/2000/svg" xmlns:xlink="http://www.w3.org/1999/xlink">
    <!-- Generator: Sketch 54.1 (76490) - https://sketchapp.com -->
    <title>Group 4</title>
    <desc>Created with Sketch.</desc>
    <g id="Page-1" stroke="none" stroke-width="1" fill="none" fill-rule="evenodd">
        <g id="UI-Home-Light" transform="translate(-165.000000, -195.000000)">
            <g id="Group-4" transform="translate(165.000000, 195.000000)">
                <rect id="Rectangle" fill="#F1F1FA" x="0" y="0" width="71" height="71" rx="35.5"></rect>
                <g id="home-(1)" transform="translate(10.000000, 24.000000)" fill-rule="nonzero" stroke="#4949BE">
                    <path d="M16.9997811,6 L5.021015,16.6466403 C5.021015,16.6616661 5.0175125,16.683772 5.0105075,16.7139021 C5.00364844,16.7437963 5,16.7655089 5,16.7809279 L5,27.5617772 C5,27.9510304 5.13200044,28.2883622 5.39592834,28.5724351 C5.65978328,28.8566655 5.9722354,28.9996853 6.33335766,28.9996853 L14.3329198,28.9996853 L14.3329198,20.3747542 L19.6667153,20.3747542 L19.6667153,29 L27.6662045,29 C28.0272538,29 28.3401437,28.8572948 28.6036338,28.5724351 C28.8675617,28.2886768 29,27.9511091 29,27.5617772 L29,16.7809279 C29,16.7211397 28.9924113,16.6759838 28.978985,16.6466403 L16.9997811,6 Z" id="Path"></path>
                    <path d="M33.7654773,13.2428949 L29.1472734,9.38663014 L29.1472734,0.741760632 C29.1472734,0.544130961 29.0840447,0.381604119 28.9571442,0.254402746 C28.8312778,0.127349799 28.6695129,0.063823326 28.4723665,0.063823326 L24.4233683,0.063823326 C24.2264435,0.063823326 24.0647525,0.127349799 23.9380736,0.254402746 C23.8116901,0.381604119 23.7485353,0.544205174 23.7485353,0.741760632 L23.7485353,4.87343043 L18.6029334,0.550884359 C18.1535372,0.183603382 17.6191959,0 17.0005005,0 C16.3818789,0 15.8476115,0.183603382 15.397772,0.550884359 L0.234341787,13.2428949 C0.0937761946,13.3556989 0.0167347268,13.507539 0.00240486602,13.6982669 C-0.0118511295,13.8888463 0.0372692695,14.0553064 0.149913793,14.1964599 L1.45740279,15.7644357 C1.57004731,15.8914887 1.71748237,15.9691899 1.9002989,15.9976135 C2.06908102,16.0118624 2.23786314,15.962288 2.40664527,15.8493356 L17.0000573,3.62330959 L31.593617,15.8492614 C31.7063354,15.9478165 31.8536966,15.9970198 32.0365131,15.9970198 L32.0998895,15.9970198 C32.2824106,15.9691157 32.4295502,15.890895 32.5427856,15.7641389 L33.8504223,14.1963857 C33.9628453,14.0549354 34.0121134,13.8887721 33.9974881,13.69797 C33.9830843,13.5077617 33.9057474,13.3559215 33.7654773,13.2428949 Z" id="Path"></path>
                </g>
                <g id="b56cc465b748f46d0a8b587f76ee8f84" transform="translate(42.000000, 20.000000)" fill="#4A5669" fill-rule="nonzero">
                    <path d="M15.9997959,12 L7.80061224,12 L2.99938776,16 L2.99938776,12 L2.00020408,12 C0.896326531,12 0,11.1038549 0,9.99909297 L0,1.99909297 C0,0.896145125 0.896326531,0 2.00020408,0 L15.9997959,0 C17.1036735,0 18,0.896145125 18,2.00090703 L18,10.000907 C18,11.1038549 17.1036735,12 15.9997959,12 L15.9997959,12 Z M17.0008163,2.00090703 C17.0008163,1.44943311 16.5526531,0.999546485 15.9997959,0.999546485 L2.00020408,0.999546485 C1.44734694,0.999546485 0.999183673,1.44761905 0.999183673,2.00090703 L0.999183673,10.000907 C0.999183673,10.552381 1.44734694,11.0004535 2.00020408,11.0004535 L2.99938776,11.0004535 L3.99857143,11.0004535 L3.99857143,13.0013605 L6.99795918,11.0022676 L9,11.0022676 L15.9997959,11.0022676 C16.5526531,11.0022676 17.0008163,10.554195 17.0008163,10.0027211 L17.0008163,2.00090703 L17.0008163,2.00090703 Z M13.0004082,6.99863946 C12.447551,6.99863946 12.0012245,6.55056689 12.0012245,5.99909297 C12.0012245,5.44761905 12.447551,4.99773243 13.0004082,4.99773243 C13.5532653,4.99773243 14.0014286,5.44580499 14.0014286,5.99909297 C13.9995918,6.55238095 13.5514286,6.99863946 13.0004082,6.99863946 L13.0004082,6.99863946 Z M9,6.99863946 C8.44714286,6.99863946 8.00081633,6.55056689 8.00081633,5.99909297 C8.00081633,5.44761905 8.44714286,4.99773243 9,4.99773243 C9.55285714,4.99773243 9.99918367,5.44580499 9.99918367,5.99909297 C9.99918367,6.55238095 9.55285714,6.99863946 9,6.99863946 L9,6.99863946 Z M4.99959184,6.99863946 C4.44673469,6.99863946 3.99857143,6.55056689 3.99857143,5.99909297 C3.99857143,5.44761905 4.44673469,4.99773243 4.99959184,4.99773243 C5.55244898,4.99773243 5.99877551,5.44580499 5.99877551,5.99909297 C6.00061224,6.55238095 5.55244898,6.99863946 4.99959184,6.99863946 L4.99959184,6.99863946 Z" id="Shape"></path>
                </g>
            </g>
        </g>
    </g>
</svg>