<?xml version="1.0" encoding="UTF-8"?>
<svg width="35px" height="35px" viewBox="0 0 35 35" version="1.1" xmlns="http://www.w3.org/2000/svg" xmlns:xlink="http://www.w3.org/1999/xlink">
    <!-- Generator: Sketch 54.1 (76490) - https://sketchapp.com -->
    <title>Group 13</title>
    <desc>Created with Sketch.</desc>
    <g id="Page-1" stroke="none" stroke-width="1" fill="none" fill-rule="evenodd">
        <g id="UI-Home-Light" transform="translate(-161.000000, -582.000000)">
            <g id="Group-13" transform="translate(161.000000, 582.000000)">
                <circle id="Oval-Copy-10" fill="#F1F1FA" cx="17.5" cy="17.5" r="17.5"></circle>
                <g id="humidity" transform="translate(10.000000, 7.000000)" fill="#4949BE" fill-rule="nonzero">
                    <path d="M8.47023161,0.203025723 C8.37541664,0.0190967072 8.14981135,-0.0531611309 7.96609735,0.0418474883 C7.89110875,0.0806200018 7.83146966,0.143585238 7.79677346,0.220649563 L5.27514278,5.87230118 L3.75122787,3.06049438 C3.68663217,2.93664667 3.55712101,2.86038342 3.41753675,2.86438888 C3.27843212,2.86647169 3.15195885,2.94545861 3.08912195,3.06994715 L0.379939905,8.41894903 C-0.49242183,10.1345517 0.188391249,12.2340342 1.90065701,13.1081776 C1.97420657,13.1458286 2.04919513,13.1807559 2.12530294,13.2131197 C1.39204578,16.3025824 3.05954225,19.4578943 6.02183073,20.5864623 C7.38441625,21.1050844 8.88386791,21.1368074 10.2670793,20.6765042 L10.6786371,20.5383972 C13.9878876,19.434022 15.7769007,15.8506105 14.6746167,12.5347613 C14.5745253,12.2333933 14.4518894,11.9400361 14.3078282,11.6572533 L8.47023161,0.203025723 Z M2.3464313,12.4935856 C0.971853992,11.860889 0.369387163,10.2311625 1.00095402,8.85377771 C1.01566393,8.82173433 1.0310134,8.78969094 1.04700244,8.75812822 L3.43400542,4.04422618 L4.89044659,6.73442838 L2.5020046,12.09064 C2.44300507,12.2232996 2.39583741,12.3586829 2.3464313,12.4935856 L2.3464313,12.4935856 Z M13.8348725,16.6478499 C13.2210535,18.1526071 11.9822231,19.3138593 10.4429587,19.8273545 L10.031401,19.9648207 C8.81159751,20.371291 7.48898456,20.3430928 6.28756846,19.8850326 C3.41449882,18.7888285 1.97228789,15.566546 3.06625762,12.6876083 C3.10351206,12.5895555 3.14364455,12.492464 3.18633528,12.3964941 L8.16228278,1.24187219 L13.6433239,11.9980347 C14.3808981,13.4457546 14.45093,15.1440539 13.8348725,16.6478499 Z" id="Shape"></path>
                </g>
            </g>
        </g>
    </g>
</svg>