<?xml version="1.0" encoding="UTF-8"?>
<svg width="100px" height="100px" viewBox="0 0 100 100" version="1.1" xmlns="http://www.w3.org/2000/svg" xmlns:xlink="http://www.w3.org/1999/xlink">
    <!-- Generator: Sketch 54.1 (76490) - https://sketchapp.com -->
    <title>Group 9</title>
    <desc>Created with Sketch.</desc>
    <g id="Page-1" stroke="none" stroke-width="1" fill="none" fill-rule="evenodd">
        <g id="UI-Home-Light" transform="translate(-984.000000, -219.000000)">
            <g id="Group-9" transform="translate(984.000000, 219.000000)">
                <circle id="Oval" fill="#F1F1FA" cx="50" cy="50" r="50"></circle>
                <g id="kitchen-furniture-svgrepo-com" transform="translate(18.000000, 18.000000)" fill-rule="nonzero" stroke="#4949BE">
                    <rect id="Rectangle" x="25.220414" y="41.9886957" width="14.4214437" height="11.4782609"></rect>
                    <g id="Group" transform="translate(0.000000, 29.000000)">
                        <path d="M62.3781953,0.124565217 L48.8768259,0.124565217 L48.8768259,29.994 L62.3781953,29.994 C63.7478875,29.994 64.8622718,28.9407391 64.8622718,27.6461739 L64.8622718,2.4723913 C64.8622718,1.17782609 63.7478875,0.124565217 62.3781953,0.124565217 Z" id="Path"></path>
                        <path d="M2.48407643,29.9941304 L16.445552,29.9941304 L16.445552,0.124565217 L2.48407643,0.124565217 C1.11438429,0.124565217 0,1.17782609 0,2.4723913 L0,27.6461739 C0,28.9408696 1.11438429,29.9941304 2.48407643,29.9941304 Z" id="Path"></path>
                    </g>
                    <path d="M19.2056369,29.1245652 L19.2056369,58.994 L46.116879,58.994 L46.116879,29.1245652 L19.2056369,29.1245652 Z M40.0215074,33.446 C40.7646603,33.446 41.3670488,34.0153478 41.3670488,34.7177391 C41.3670488,35.4201304 40.7646603,35.9894783 40.0215074,35.9894783 C39.2783546,35.9894783 38.675966,35.4201304 38.675966,34.7177391 C38.675966,34.0153478 39.2784926,33.446 40.0215074,33.446 Z M34.9614437,33.446 C35.7044586,33.446 36.3068471,34.0153478 36.3068471,34.7177391 C36.3068471,35.4201304 35.7044586,35.9894783 34.9614437,35.9894783 C34.2180149,35.9894783 33.6154883,35.4201304 33.6154883,34.7177391 C33.6156263,34.0153478 34.2181529,33.446 34.9614437,33.446 Z M29.90138,33.446 C30.6443949,33.446 31.2467834,34.0153478 31.2467834,34.7177391 C31.2467834,35.4201304 30.6443949,35.9894783 29.90138,35.9894783 C29.1579512,35.9894783 28.5552866,35.4201304 28.5552866,34.7177391 C28.5554246,34.0153478 29.1580892,33.446 29.90138,33.446 Z M24.8407643,33.446 C25.5839172,33.446 26.1863057,34.0153478 26.1863057,34.7177391 C26.1863057,35.4201304 25.5839172,35.9894783 24.8407643,35.9894783 C24.0976115,35.9894783 23.4952229,35.4201304 23.4952229,34.7177391 C23.4952229,34.0153478 24.0976115,33.446 24.8407643,33.446 Z M42.4019427,54.7713043 C42.4019427,55.4916957 41.7839597,56.0756522 41.0219002,56.0756522 L23.8403715,56.0756522 C23.0781741,56.0756522 22.4603291,55.4916957 22.4603291,54.7713043 L22.4603291,40.6843478 C22.4603291,39.9639565 23.0781741,39.38 23.8403715,39.38 L41.0219002,39.38 C41.7839597,39.38 42.4019427,39.9639565 42.4019427,40.6843478 L42.4019427,54.7713043 Z" id="Shape"></path>
                    <path d="M37.0880234,13.4580658 C36.1943306,13.4580658 35.4631142,12.8239391 35.4631142,12.0489095 L35.4631142,1.40915628 C35.4631142,0.634126621 34.7318977,0 33.8380597,0 L30.1616499,0 C29.2678119,0 28.5365954,0.634126621 28.5365954,1.40915628 L28.5365954,12.0489095 C28.5365954,12.8239391 27.805379,13.4580658 26.9116862,13.4580658 L20.6250544,13.4580658 C19.7312164,13.4580658 19,14.0921924 19,14.867222 L19,17.5908437 C19,18.3658734 19.7312164,19 20.6250544,19 L43.3749456,19 C44.2686384,19 45,18.3658734 45,17.5908437 L45,14.867222 C45,14.0921924 44.2686384,13.4580658 43.3749456,13.4580658 L37.0880234,13.4580658 Z" id="Path"></path>
                </g>
            </g>
        </g>
    </g>
</svg>