<?xml version="1.0" encoding="UTF-8"?>
<svg width="43px" height="43px" viewBox="0 0 43 43" version="1.1" xmlns="http://www.w3.org/2000/svg" xmlns:xlink="http://www.w3.org/1999/xlink">
    <!-- Generator: Sketch 54.1 (76490) - https://sketchapp.com -->
    <title>Group 10</title>
    <desc>Created with Sketch.</desc>
    <g id="Page-1" stroke="none" stroke-width="1" fill="none" fill-rule="evenodd">
        <g id="UI-Home-Light" transform="translate(-621.000000, -644.000000)">
            <g id="Group-3" transform="translate(621.000000, 644.000000)">
                <g id="Group-10">
                    <circle id="Oval" fill="#D7F6E0" cx="21.5" cy="21.5" r="21.5"></circle>
                    <g id="table-lamp" transform="translate(14.000000, 12.000000)" fill-rule="nonzero" stroke="#51D679">
                        <path d="M14.9842354,11.1219597 L11.9821753,0.341478963 C11.9250338,0.139664785 11.736781,-9.14186171e-05 11.5221841,4.4867085e-08 L3.47803371,4.4867085e-08 C3.26343678,-9.14186171e-05 3.07518399,0.139664785 3.01804252,0.341478963 L0.0159824344,11.1219597 C-0.0228775161,11.2628135 0.0100760969,11.4132709 0.104483745,11.5263655 C0.201610183,11.6417924 0.346924836,11.7082864 0.499973977,11.707326 L6.50006284,11.707326 L6.50006284,18.5365843 L2.50001922,18.5365843 L2.50001922,20 L12.5001517,20 L12.5001517,18.5365843 L8.50010808,18.5365843 L8.50010808,11.707326 L14.5001969,11.707326 C14.6534336,11.7080577 14.7987951,11.6411522 14.8956872,11.5253594 C14.9898136,11.4125392 15.0227203,11.2624934 14.9842354,11.1219597 Z" id="Path"></path>
                    </g>
                </g>
            </g>
        </g>
    </g>
</svg>