<?xml version="1.0" encoding="UTF-8"?>
<svg width="100px" height="100px" viewBox="0 0 100 100" version="1.1" xmlns="http://www.w3.org/2000/svg" xmlns:xlink="http://www.w3.org/1999/xlink">
    <!-- Generator: Sketch 54.1 (76490) - https://sketchapp.com -->
    <title>Group 8</title>
    <desc>Created with Sketch.</desc>
    <g id="Page-1" stroke="none" stroke-width="1" fill="none" fill-rule="evenodd">
        <g id="UI-Home-Light" transform="translate(-804.000000, -219.000000)">
            <g id="Group-8" transform="translate(804.000000, 219.000000)">
                <circle id="Oval" fill="#F1F1FA" cx="50" cy="50" r="50"></circle>
                <g id="home" transform="translate(18.000000, 25.000000)" fill-rule="nonzero" stroke="#4949BE">
                    <path d="M0,33.2951587 L0,41.1183352 C0,43.4903794 1.8807559,45.4134939 4.20085594,45.4134939 L4.98826249,45.4134939 L4.03914912,48.1523534 C3.78927552,48.8732444 4.15833002,49.6646181 4.86339341,49.920101 C5.01291126,49.974244 5.16554408,50 5.3157391,50 C5.87318069,50 6.39554516,49.6452319 6.59232908,49.0773537 L7.86201199,45.4134939 L15,45.4134939 L15,29 L4.20085594,29 C1.8807559,29 0,30.9231145 0,33.2951587 Z M9.95648091,36.053266 C9.95648091,35.288479 10.5628138,34.668535 11.3108093,34.668535 C12.0588049,34.668535 12.6651378,35.288479 12.6651378,36.053266 L12.6651378,37.3456355 C12.6651378,38.1104224 12.0588049,38.7303665 11.3108093,38.7303665 C10.5628138,38.7303665 9.95648091,38.1104224 9.95648091,37.3456355 L9.95648091,36.053266 Z" id="Shape"></path>
                    <path d="M60.7990466,29 L50,29 L50,45.4134636 L57.138059,45.4134636 L58.4077304,49.0773476 C58.6045126,49.645368 59.1267369,50 59.6843089,50 C59.8343671,50 59.987134,49.9742438 60.1366505,49.9201005 C60.8417075,49.6646159 61.2107587,48.8732369 60.9608873,48.1523412 L60.0117826,45.4134636 L60.799182,45.4134636 C63.1192611,45.4134636 65,43.490475 65,41.1182766 L65,33.2950486 C64.9998646,30.9231271 63.1189902,29 60.7990466,29 Z M55.0434736,37.3456905 C55.0434736,38.1104825 54.4371462,38.7304307 53.6891573,38.7304307 C52.9411685,38.7304307 52.3348411,38.1104825 52.3348411,37.3456905 L52.3348411,36.0533125 C52.3348411,35.2885205 52.9411685,34.6685723 53.6891573,34.6685723 C54.4371462,34.6685723 55.0434736,35.2885205 55.0434736,36.0533125 L55.0434736,37.3456905 Z" id="Shape"></path>
                    <path d="M36.5593992,27.7455836 L33.3542636,27.7455836 L33.3542636,26.1918331 L52.6602388,26.1918331 C53.9524771,26.1918331 55,25.1444901 55,23.8524738 L55,2.33935927 C55,1.04734294 53.9524771,0 52.6602388,0 L11.3397612,0 C10.0475229,0 9,1.04734294 9,2.33935927 L9,23.8524738 C9,25.1443547 10.0475229,26.1918331 11.3397612,26.1918331 L30.6457364,26.1918331 L30.6457364,27.7455836 L27.4407362,27.7455836 C26.7432905,27.7455836 26.1693536,28.2729787 26.0950045,28.9505357 L17.2837594,28.9505357 L17.2837594,45 L46.716376,45 L46.716376,28.9505357 L37.9051309,28.9505357 C37.8307818,28.2729787 37.2569803,27.7455836 36.5593992,27.7455836 Z M42.6083529,36.7500248 C42.6083529,37.4978561 42.0020491,38.1040558 41.2540893,38.1040558 L22.7457753,38.1040558 C21.9978155,38.1040558 21.3915117,37.4978561 21.3915117,36.7500248 C21.3915117,36.0021935 21.9978155,35.3959939 22.7457753,35.3959939 L41.2540893,35.3959939 C42.0020491,35.3959939 42.6083529,36.0021935 42.6083529,36.7500248 Z" id="Shape"></path>
                </g>
            </g>
        </g>
    </g>
</svg>