<?xml version="1.0" encoding="UTF-8"?>
<svg width="43px" height="43px" viewBox="0 0 43 43" version="1.1" xmlns="http://www.w3.org/2000/svg" xmlns:xlink="http://www.w3.org/1999/xlink">
    <!-- Generator: Sketch 54.1 (76490) - https://sketchapp.com -->
    <title>Group 16</title>
    <desc>Created with Sketch.</desc>
    <g id="Page-1" stroke="none" stroke-width="1" fill="none" fill-rule="evenodd">
        <g id="UI-Home-Light" transform="translate(-611.000000, -474.000000)">
            <g id="Group-16" transform="translate(611.000000, 474.000000)">
                <circle id="Oval" fill="#E6F1F3" cx="21.5" cy="21.5" r="21.5"></circle>
                <g id="Group" transform="translate(8.000000, 6.000000)" fill-rule="nonzero">
                    <path d="M19.3947182,17 C19.2197364,17 19.0462233,16.9227933 18.9272968,16.7739637 C18.7178234,16.5118321 18.7571333,16.1267556 19.0150813,15.9138855 C20.1472934,14.9795569 20.796631,13.5946782 20.796631,12.1144115 C20.796631,9.41720398 18.6373247,7.22288231 15.9831572,7.22288231 C13.5280919,7.22288231 11.4716712,9.08950943 11.1996799,11.5648011 C11.1628092,11.9004071 10.8653161,12.141938 10.5349482,12.1046487 C10.204727,12.0671502 9.96687341,11.7647137 10.0037741,11.4291077 C10.3438376,8.33401518 12.914392,6 15.9831578,6 C19.3008819,6 22,8.74291645 22,12.1144115 C22,12.5724851 21.9502663,13.0232393 21.8539552,13.4599393 C21.5612367,14.7872012 20.8382658,15.9846395 19.7736511,16.8631717 C19.6621271,16.9552168 19.5279822,17 19.3947182,17 Z" id="Path" fill="#72CADB"></path>
                    <path d="M16.5,5 C16.223877,5 16,4.69749662 16,4.32432432 L16,0.675675676 C16,0.302503378 16.223877,0 16.5,0 C16.776123,0 17,0.302503378 17,0.675675676 L17,4.32432432 C17,4.69749662 16.776123,5 16.5,5 Z" id="Path" fill="#72CADB"></path>
                    <path d="M9.32432432,12 L5.67567568,12 C5.30250338,12 5,11.7761475 5,11.5 C5,11.2238525 5.30250338,11 5.67567568,11 L9.32432432,11 C9.69749662,11 10,11.2238525 10,11.5 C10,11.7761475 9.69749662,12 9.32432432,12 Z" id="Path" fill="#72CADB"></path>
                    <path d="M27.3243243,12 L23.6756757,12 C23.3025365,12 23,11.7761475 23,11.5 C23,11.2238525 23.3025365,11 23.6756757,11 L27.3243243,11 C27.6974635,11 28,11.2238525 28,11.5 C28,11.7761475 27.6974635,12 27.3243243,12 Z" id="Path" fill="#72CADB"></path>
                    <path d="M21.6810092,7 C21.5067043,7 21.3324662,6.93353008 21.1994595,6.80055618 C20.9335135,6.53460906 20.9335135,6.10340069 21.1994595,5.83745289 L23.8374412,3.19946034 C24.1034539,2.93351322 24.5345277,2.93351322 24.8005405,3.19946034 C25.0664865,3.46540745 25.0664865,3.89661582 24.8005405,4.16256362 L22.1625588,6.80055618 C22.0295528,6.93352939 21.855314,7 21.6810092,7 Z" id="Path" fill="#72CADB"></path>
                    <path d="M10.319007,7 C10.1447334,7 9.97042642,6.93353008 9.83745145,6.80055618 L7.19943744,4.16256362 C6.93352085,3.8966165 6.93352085,3.46540813 7.19943744,3.19946034 C7.46538672,2.93351322 7.8965986,2.93351322 8.16254855,3.19946034 L10.8005626,5.83745289 C11.0664791,6.10340001 11.0664791,6.53460838 10.8005626,6.80055618 C10.6675876,6.93352939 10.4932806,7 10.319007,7 Z" id="Path" fill="#72CADB"></path>
                    <path d="M24.3189908,21 C24.144686,21 23.9704479,20.9335301 23.8374412,20.8005562 L21.1994595,18.1625636 C20.9335135,17.8966165 20.9335135,17.4654081 21.1994595,17.1994603 C21.4654723,16.9335132 21.8965461,16.9335132 22.1625588,17.1994603 L24.8005405,19.8374529 C25.0664865,20.1034 25.0664865,20.5346084 24.8005405,20.8005562 C24.6675338,20.9335294 24.4932957,21 24.3189908,21 Z" id="Path" fill="#72CADB"></path>
                    <path d="M4.21970105,26 C1.891152,25.9845508 0,24.070025 0,21.7322114 C0,19.700671 1.39130753,18.0025214 3.28529639,17.5707207 C3.25450121,17.4000661 3.23904461,17.2259293 3.23904461,17.0489346 C3.23904461,15.4485103 4.53176021,14.1464706 6.12075334,14.1464706 C6.64852647,14.1464706 7.15439997,14.2883404 7.59575726,14.5541898 C8.80513116,12.9433768 10.671221,12 12.7078371,12 C15.890818,12 18.5737771,14.361597 19.0498305,17.473502 C21.252894,17.6229921 23,19.4759899 23,21.7322114 C23,24.0623449 21.1178918,25.9767219 18.8044151,25.9996726 L4.21970105,26 Z M6.12075334,15.3657282 C5.19926379,15.3657282 4.44957092,16.1207986 4.44957092,17.0489346 C4.44957092,17.3137122 4.50924018,17.567536 4.62692392,17.8032905 C4.71933913,17.9884414 4.71203905,18.2082114 4.60753674,18.386754 C4.50303442,18.5652667 4.31563345,18.678084 4.11002676,18.6862701 C2.48415071,18.7509243 1.21052632,20.0888625 1.21052632,21.7322114 C1.21052632,23.4021419 2.56223147,24.7697283 4.22369034,24.7807424 L18.7984447,24.7804449 C20.4450087,24.7640734 21.7894731,23.3966352 21.7894731,21.732212 C21.7894731,20.0508808 20.4314139,18.6830263 18.7621526,18.6830263 C18.6999714,18.6830263 18.6323521,18.6857348 18.5494237,18.6915397 C18.3892421,18.7025831 18.2301831,18.6490919 18.1089532,18.5422282 C17.9877232,18.4353944 17.9137201,18.2843266 17.9034354,18.122394 C17.7282995,15.372962 15.4461499,13.2192582 12.7078365,13.2192582 C10.8714778,13.2192582 9.20585108,14.1647186 8.25226624,15.7483544 C8.15574311,15.9086794 7.99130582,16.0153346 7.80644634,16.0375708 C7.62161653,16.0595388 7.43687508,15.9950931 7.30559713,15.8621239 C6.98951842,15.5420085 6.568731,15.3657282 6.12075334,15.3657282 Z" id="Shape" stroke="#72CADB"></path>
                </g>
            </g>
        </g>
    </g>
</svg>