<?xml version="1.0" encoding="UTF-8"?>
<svg width="35px" height="35px" viewBox="0 0 35 35" version="1.1" xmlns="http://www.w3.org/2000/svg" xmlns:xlink="http://www.w3.org/1999/xlink">
    <!-- Generator: Sketch 54.1 (76490) - https://sketchapp.com -->
    <title>Group 14</title>
    <desc>Created with Sketch.</desc>
    <g id="Page-1" stroke="none" stroke-width="1" fill="none" fill-rule="evenodd">
        <g id="UI-Home-Light" transform="translate(-338.000000, -582.000000)">
            <g id="Group-14" transform="translate(338.000000, 582.000000)">
                <g id="Group-5-Copy-2" fill="#8A929E" opacity="0.132928757">
                    <circle id="Oval-Copy-9" cx="17.5" cy="17.5" r="17.5"></circle>
                </g>
                <g id="gauge" transform="translate(9.000000, 9.000000)" fill="#4A5669" fill-rule="nonzero">
                    <path d="M8.5,0 C3.8133125,0 0,3.8133125 0,8.5 C0,13.1866875 3.8133125,17 8.5,17 C13.1866875,17 17,13.1866875 17,8.5 C17,3.8133125 13.1866875,0 8.5,0 Z M8.5,16.2916777 C4.94025977,16.2916777 1.9326875,13.8914902 1.00549023,10.625 L6.04599023,10.625 C6.63604297,11.5160723 7.54023047,12.0416777 8.5,12.0416777 C9.45980273,12.0416777 10.3639902,11.5161055 10.9540098,10.625 L15.9945098,10.625 C15.0673125,13.8914902 12.0597402,16.2916777 8.5,16.2916777 Z M10.7574473,9.91667773 C10.6317402,9.91661133 10.5153965,9.9832168 10.4518125,10.091625 C9.99636523,10.8690098 9.26675977,11.3333223 8.5,11.3333223 C7.73324023,11.3333223 7.00363477,10.8690098 6.5481875,10.091625 C6.48457031,9.98318359 6.36825977,9.91661133 6.24255273,9.91667773 L0.839740234,9.91667773 C0.752847656,9.44944336 0.708886719,8.97523633 0.708355469,8.5 C0.708322266,4.20361523 4.20361523,0.708322266 8.5,0.708322266 C12.7963848,0.708322266 16.2916777,4.20361523 16.2916777,8.5 C16.2911465,8.97523633 16.2471523,9.44944336 16.160293,9.91667773 L10.7574473,9.91667773 L10.7574473,9.91667773 Z" id="Shape"></path>
                    <path d="M11.3475784,5.10035803 L9.05542626,7.22862853 C8.8903786,7.1717263 8.71598317,7.14186772 8.53992752,7.14032619 C7.68946107,7.14032619 7,7.78045945 7,8.57015374 C7,9.35984802 7.68942498,9.99998128 8.53992752,9.99998128 C9.38591859,10.0039691 10.0752353,9.3704376 10.0795302,8.58493223 C10.0814431,8.23778845 9.94653204,7.9019715 9.7002418,7.64078427 L11.8919145,5.60580929 C12.0396381,5.46382182 12.0354154,5.23751987 11.8824584,5.10035803 C11.7332912,4.96654732 11.4967818,4.96654732 11.3475784,5.10035803 Z M8.53992752,9.28505075 C8.11469429,9.28505075 7.7699818,8.96498412 7.7699818,8.57015374 C7.7699818,8.17532335 8.11469429,7.85525672 8.53992752,7.85525672 C8.96516074,7.85525672 9.30987323,8.17532335 9.30987323,8.57015374 C9.30987323,8.96498412 8.96516074,9.28505075 8.53992752,9.28505075 Z" id="Shape"></path>
                </g>
            </g>
        </g>
    </g>
</svg>