<?xml version="1.0" encoding="UTF-8"?>
<svg width="56px" height="56px" viewBox="0 0 56 56" version="1.1" xmlns="http://www.w3.org/2000/svg" xmlns:xlink="http://www.w3.org/1999/xlink">
    <!-- Generator: Sketch 54.1 (76490) - https://sketchapp.com -->
    <title>Group 12</title>
    <desc>Created with Sketch.</desc>
    <g id="Page-1" stroke="none" stroke-width="1" fill="none" fill-rule="evenodd">
        <g id="UI-Home-Light" transform="translate(-165.000000, -803.000000)">
            <g id="Group-12" transform="translate(165.000000, 803.000000)">
                <rect id="Rectangle-Copy-2" fill="#FFEFE0" x="0" y="0" width="56" height="56" rx="28"></rect>
                <g id="Group-2" transform="translate(10.000000, 10.000000)" fill="#F19438" fill-rule="nonzero">
                    <path d="M18,27.3913043 C12.8216216,27.3913043 8.60869565,23.1783784 8.60869565,18 C8.60869565,12.8216216 12.8216216,8.60869565 18,8.60869565 C23.1783784,8.60869565 27.3913043,12.8216216 27.3913043,18 C27.3913043,23.1783784 23.1783774,27.3913043 18,27.3913043 Z M18,10.4869565 C13.8572797,10.4869565 10.4869565,13.8572797 10.4869565,18 C10.4869565,22.1427203 13.8572797,25.5130435 18,25.5130435 C22.1427203,25.5130435 25.5130435,22.1427203 25.5130435,18 C25.5130435,13.8572797 22.1427203,10.4869565 18,10.4869565 Z" id="Shape"></path>
                    <path d="M18,7.04347826 C17.5677691,7.04347826 17.2173913,6.61734307 17.2173913,6.09165687 L17.2173913,0.951821387 C17.2173913,0.426135194 17.5677691,0 18,0 C18.4322309,0 18.7826087,0.426135194 18.7826087,0.951821387 L18.7826087,6.09165687 C18.7826087,6.61734307 18.4322309,7.04347826 18,7.04347826 Z" id="Path"></path>
                    <path d="M18,36 C17.5677691,36 17.2173913,35.5738648 17.2173913,35.0481786 L17.2173913,29.9083431 C17.2173913,29.3826569 17.5677691,28.9565217 18,28.9565217 C18.4322309,28.9565217 18.7826087,29.3826569 18.7826087,29.9083431 L18.7826087,35.0481786 C18.7826087,35.5738648 18.4322309,36 18,36 Z" id="Path"></path>
                    <path d="M6.09165687,18.7826087 L0.951821387,18.7826087 C0.426135194,18.7826087 0,18.4322309 0,18 C0,17.5677691 0.426135194,17.2173913 0.951821387,17.2173913 L6.09165687,17.2173913 C6.61734307,17.2173913 7.04347826,17.5677691 7.04347826,18 C7.04347826,18.4322309 6.61734307,18.7826087 6.09165687,18.7826087 Z" id="Path"></path>
                    <path d="M35.0481786,18.7826087 L29.9083431,18.7826087 C29.3826569,18.7826087 28.9565217,18.4322309 28.9565217,18 C28.9565217,17.5677691 29.3826569,17.2173913 29.9083431,17.2173913 L35.0481786,17.2173913 C35.5738648,17.2173913 36,17.5677691 36,18 C36,18.4322309 35.5738648,18.7826087 35.0481786,18.7826087 Z" id="Path"></path>
                    <path d="M25.9761426,10.9565217 C25.7374635,10.9565217 25.4987388,10.8654868 25.3166208,10.6833704 C24.9524307,10.3191385 24.9524307,9.72857051 25.3166208,9.36433766 L28.9295531,5.75143481 C29.2937879,5.38720289 29.8843607,5.38720289 30.2485965,5.75143481 C30.6127867,6.11566673 30.6127867,6.70623471 30.2485965,7.07046757 L26.6356643,10.6833704 C26.4535464,10.8654859 26.2148217,10.9565217 25.9761426,10.9565217 Z" id="Path"></path>
                    <path d="M6.41092519,30.5217391 C6.17224613,30.5217391 5.93352136,30.4307042 5.75140345,30.2485878 C5.38721334,29.8843559 5.38721334,29.2937879 5.75140345,28.9295551 L9.36433568,25.3166522 C9.72857056,24.9524203 10.3191433,24.9524203 10.6833792,25.3166522 C11.0475693,25.6808841 11.0475693,26.2714521 10.6833792,26.635685 L7.07044693,30.2485878 C6.88832996,30.4307033 6.64960519,30.5217391 6.41092519,30.5217391 Z" id="Path"></path>
                    <path d="M10.0238574,10.9565217 C9.78517835,10.9565217 9.54645358,10.8654868 9.36433568,10.6833704 L5.75140345,7.07046757 C5.38721334,6.70623565 5.38721334,6.11566766 5.75140345,5.75143481 C6.11563833,5.38720289 6.70621112,5.38720289 7.07044693,5.75143481 L10.6833792,9.36433766 C11.0475693,9.72856958 11.0475693,10.3191376 10.6833792,10.6833704 C10.5012612,10.8654859 10.2625365,10.9565217 10.0238574,10.9565217 Z" id="Path"></path>
                    <path d="M29.5890748,30.5217391 C29.3503957,30.5217391 29.111671,30.4307042 28.9295531,30.2485878 L25.3166208,26.635685 C24.9524307,26.271453 24.9524307,25.6808851 25.3166208,25.3166522 C25.6808557,24.9524203 26.2714285,24.9524203 26.6356643,25.3166522 L30.2485965,28.9295551 C30.6127867,29.293787 30.6127867,29.884355 30.2485965,30.2485878 C30.0664786,30.4307033 29.8277539,30.5217391 29.5890748,30.5217391 Z" id="Path"></path>
                </g>
            </g>
        </g>
    </g>
</svg>