<?xml version="1.0" encoding="UTF-8"?>
<svg width="35px" height="35px" viewBox="0 0 35 35" version="1.1" xmlns="http://www.w3.org/2000/svg" xmlns:xlink="http://www.w3.org/1999/xlink">
    <!-- Generator: Sketch 54.1 (76490) - https://sketchapp.com -->
    <title>Group 15</title>
    <desc>Created with Sketch.</desc>
    <g id="Page-1" stroke="none" stroke-width="1" fill="none" fill-rule="evenodd">
        <g id="UI-Home-Light" transform="translate(-432.000000, -582.000000)">
            <g id="Group-15" transform="translate(432.000000, 582.000000)">
                <g id="Group-5-Copy-3" fill="#F1F1FA">
                    <circle id="Oval-Copy-9" cx="17.5" cy="17.5" r="17.5"></circle>
                </g>
                <g id="wind" transform="translate(9.000000, 10.000000)" fill="#4949BE" fill-rule="nonzero">
                    <path d="M14.237832,8 L0.3488878,8 C0.156162179,8 0,7.85878534 0,7.68460096 C0,7.51041658 0.156162179,7.36920191 0.3488878,7.36920191 L14.1703804,7.36920191 C14.1921975,7.36533302 14.2147589,7.36331447 14.237832,7.36331447 C15.3761366,7.36331447 16.3022244,6.52611925 16.3022244,5.4970773 C16.3022244,4.46803536 15.3761366,3.63079809 14.237832,3.63079809 C13.0995274,3.63079809 12.1734397,4.46799331 12.1734397,5.49703525 C12.1734397,5.67121963 12.0172775,5.81243429 11.8245519,5.81243429 C11.6318262,5.81243429 11.475664,5.67121963 11.475664,5.49703525 C11.475664,4.12017124 12.714774,3 14.237832,3 C15.7608901,3 17,4.12017124 17,5.49703525 C17,6.85215775 15.7997794,7.95861965 14.309889,7.99322943 C14.2866298,7.99768707 14.2625798,8 14.237832,8 Z" id="Path"></path>
                    <path d="M7.19466505,5 L0.354340195,5 C0.158602671,5 0,4.85878415 0,4.6845983 C0,4.51041246 0.158602671,4.36919661 0.354340195,4.36919661 L7.12615928,4.36919661 C7.14831736,4.36532768 7.17123136,4.36330911 7.19466505,4.36330911 C8.350759,4.36330911 9.29131961,3.52610685 9.29131961,2.49705625 C9.29131961,1.46800565 8.350759,0.630803391 7.19466505,0.630803391 C6.03852387,0.630803391 5.09796325,1.46800565 5.09796325,2.49705625 C5.09796325,2.67124209 4.93936058,2.81245795 4.74362306,2.81245795 C4.54788553,2.81245795 4.38928286,2.67124209 4.38928286,2.49705625 C4.38928286,1.12018066 5.64780474,0 7.19466505,0 C8.74152536,0 10,1.12018066 10,2.49705625 C10,3.85219015 8.78102248,4.95866135 7.26784812,4.99327143 C7.24422544,4.997645 7.21975234,5 7.19466505,5 Z" id="Path"></path>
                    <path d="M11.2615593,16 C9.75158451,16 8.52307256,14.8784988 8.52307256,13.5 C8.52307256,13.3256088 8.67789329,13.1842265 8.86896338,13.1842265 C9.06003347,13.1842265 9.2148542,13.3256088 9.2148542,13.5 C9.2148542,14.5302637 10.1329868,15.368453 11.2615593,15.368453 C12.3900858,15.368453 13.3082184,14.5302637 13.3082184,13.5 C13.3082184,12.4697363 12.3900858,11.631547 11.2615593,11.631547 L0.345890817,11.631547 C0.15482073,11.631547 0,11.4901647 0,11.3157735 C0,11.1413823 0.15482073,11 0.345890817,11 L11.2615593,11 C12.7715342,11 14,12.1215012 14,13.5 C14,14.8784988 12.7715342,16 11.2615593,16 Z" id="Path"></path>
                </g>
            </g>
        </g>
    </g>
</svg>