<?xml version="1.0" encoding="UTF-8"?>
<svg width="43px" height="43px" viewBox="0 0 43 43" version="1.1" xmlns="http://www.w3.org/2000/svg" xmlns:xlink="http://www.w3.org/1999/xlink">
    <!-- Generator: Sketch 54.1 (76490) - https://sketchapp.com -->
    <title>Group 2</title>
    <desc>Created with Sketch.</desc>
    <g id="Page-1" stroke="none" stroke-width="1" fill="none" fill-rule="evenodd">
        <g id="UI-Home-Light-Copy-2" transform="translate(-891.000000, -564.000000)">
            <g id="Group-2" transform="translate(891.000000, 564.000000)">
                <g id="Group-17-Copy-2" fill="#F1F1FA">
                    <circle id="Oval-Copy-5" cx="21.5" cy="21.5" r="21.5"></circle>
                </g>
                <g id="chip" transform="translate(10.000000, 10.000000)" fill="#4949BE" fill-rule="nonzero">
                    <path d="M22.3261719,9.47851562 C22.6983566,9.47851562 23,9.17687224 23,8.8046875 C23,8.43250276 22.6983566,8.13085938 22.3261719,8.13085938 L20.3046875,8.13085938 L20.3046875,6.78320312 L22.3261719,6.78320312 C22.6983566,6.78320312 23,6.48155974 23,6.109375 C23,5.73719026 22.6983566,5.43554688 22.3261719,5.43554688 L20.3046875,5.43554688 L20.3046875,4.26757812 C20.3046875,3.40055085 19.5994491,2.6953125 18.7324219,2.6953125 L17.5644531,2.6953125 L17.5644531,0.673828125 C17.5644531,0.301643383 17.2628097,0 16.890625,0 C16.5184403,0 16.2167969,0.301643383 16.2167969,0.673828125 L16.2167969,2.6953125 L14.8691406,2.6953125 L14.8691406,0.673828125 C14.8691406,0.301643383 14.5674972,0 14.1953125,0 C13.8231278,0 13.5214844,0.301643383 13.5214844,0.673828125 L13.5214844,2.6953125 L12.1738281,2.6953125 L12.1738281,0.673828125 C12.1738281,0.301643383 11.8721847,0 11.5,0 C11.1278153,0 10.8261719,0.301643383 10.8261719,0.673828125 L10.8261719,2.6953125 L9.47851562,2.6953125 L9.47851562,0.673828125 C9.47851562,0.301643383 9.17687224,0 8.8046875,0 C8.43250276,0 8.13085938,0.301643383 8.13085938,0.673828125 L8.13085938,2.6953125 L6.78320312,2.6953125 L6.78320312,0.673828125 C6.78320312,0.301643383 6.48155974,0 6.109375,0 C5.73719026,0 5.43554688,0.301643383 5.43554688,0.673828125 L5.43554688,2.6953125 L4.26757812,2.6953125 C3.40055085,2.6953125 2.6953125,3.40055085 2.6953125,4.26757812 L2.6953125,5.43554688 L0.673828125,5.43554688 C0.301643383,5.43554688 0,5.73719026 0,6.109375 C0,6.48155974 0.301643383,6.78320312 0.673828125,6.78320312 L2.6953125,6.78320312 L2.6953125,8.13085938 L0.673828125,8.13085938 C0.301643383,8.13085938 0,8.43250276 0,8.8046875 C0,9.17687224 0.301643383,9.47851562 0.673828125,9.47851562 L2.6953125,9.47851562 L2.6953125,10.8261719 L0.673828125,10.8261719 C0.301643383,10.8261719 0,11.1278153 0,11.5 C0,11.8721847 0.301643383,12.1738281 0.673828125,12.1738281 L2.6953125,12.1738281 L2.6953125,13.5214844 L0.673828125,13.5214844 C0.301643383,13.5214844 0,13.8231278 0,14.1953125 C0,14.5674972 0.301643383,14.8691406 0.673828125,14.8691406 L2.6953125,14.8691406 L2.6953125,16.2167969 L0.673828125,16.2167969 C0.301643383,16.2167969 0,16.5184403 0,16.890625 C0,17.2628097 0.301643383,17.5644531 0.673828125,17.5644531 L2.6953125,17.5644531 L2.6953125,18.7324219 C2.6953125,19.5994491 3.40055085,20.3046875 4.26757812,20.3046875 L5.43554688,20.3046875 L5.43554688,22.3261719 C5.43554688,22.6983566 5.73719026,23 6.109375,23 C6.48155974,23 6.78320312,22.6983566 6.78320312,22.3261719 L6.78320312,20.3046875 L8.13085938,20.3046875 L8.13085938,22.3261719 C8.13085938,22.6983566 8.43250276,23 8.8046875,23 C9.17687224,23 9.47851562,22.6983566 9.47851562,22.3261719 L9.47851562,20.3046875 L10.8261719,20.3046875 L10.8261719,22.3261719 C10.8261719,22.6983566 11.1278153,23 11.5,23 C11.8721847,23 12.1738281,22.6983566 12.1738281,22.3261719 L12.1738281,20.3046875 L13.5214844,20.3046875 L13.5214844,22.3261719 C13.5214844,22.6983566 13.8231278,23 14.1953125,23 C14.5674972,23 14.8691406,22.6983566 14.8691406,22.3261719 L14.8691406,20.3046875 L16.2167969,20.3046875 L16.2167969,22.3261719 C16.2167969,22.6983566 16.5184403,23 16.890625,23 C17.2628097,23 17.5644531,22.6983566 17.5644531,22.3261719 L17.5644531,20.3046875 L18.7324219,20.3046875 C19.5994491,20.3046875 20.3046875,19.5994491 20.3046875,18.7324219 L20.3046875,17.5644531 L22.3261719,17.5644531 C22.6983566,17.5644531 23,17.2628097 23,16.890625 C23,16.5184403 22.6983566,16.2167969 22.3261719,16.2167969 L20.3046875,16.2167969 L20.3046875,14.8691406 L22.3261719,14.8691406 C22.6983566,14.8691406 23,14.5674972 23,14.1953125 C23,13.8231278 22.6983566,13.5214844 22.3261719,13.5214844 L20.3046875,13.5214844 L20.3046875,12.1738281 L22.3261719,12.1738281 C22.6983566,12.1738281 23,11.8721847 23,11.5 C23,11.1278153 22.6983566,10.8261719 22.3261719,10.8261719 L20.3046875,10.8261719 L20.3046875,9.47851562 L22.3261719,9.47851562 Z M19,18.7740964 C19,18.8986963 18.8986963,19 18.7740964,19 L4.22590361,19 C4.10130367,19 4,18.8986963 4,18.7740964 L4,4.22590361 C4,4.10130367 4.10130367,4 4.22590361,4 L18.7740964,4 C18.8986963,4 19,4.10130367 19,4.22590361 L19,18.7740964 Z" id="Shape"></path>
                </g>
            </g>
        </g>
    </g>
</svg>