<?xml version="1.0" encoding="UTF-8"?>
<svg width="35px" height="35px" viewBox="0 0 35 35" version="1.1" xmlns="http://www.w3.org/2000/svg" xmlns:xlink="http://www.w3.org/1999/xlink">
    <!-- Generator: Sketch 54.1 (76490) - https://sketchapp.com -->
    <title>Group 5</title>
    <desc>Created with Sketch.</desc>
    <g id="Page-1" stroke="none" stroke-width="1" fill="none" fill-rule="evenodd">
        <g id="UI-Home-Light" transform="translate(-252.000000, -582.000000)">
            <g id="Group-5" transform="translate(252.000000, 582.000000)">
                <circle id="Oval-Copy-9" fill="#FFEFE0" cx="17.5" cy="17.5" r="17.5"></circle>
                <g id="Group-2-Copy" transform="translate(7.000000, 7.000000)" fill="#F19438" fill-rule="nonzero">
                    <path d="M10.5,15.75 C7.60514265,15.75 5.25,13.3948573 5.25,10.5 C5.25,7.60514265 7.60514265,5.25 10.5,5.25 C13.3948573,5.25 15.75,7.60514265 15.75,10.5 C15.75,13.3948573 13.3948568,15.75 10.5,15.75 Z M10.5,6.3 C8.18410425,6.3 6.3,8.18410425 6.3,10.5 C6.3,12.8158957 8.18410425,14.7 10.5,14.7 C12.8158958,14.7 14.7,12.8158958 14.7,10.5 C14.7,8.18410425 12.8158958,6.3 10.5,6.3 Z" id="Shape"></path>
                    <path d="M11.025,4.2 C10.7350451,4.2 10.5,3.94589716 10.5,3.63243243 L10.5,0.567567568 C10.5,0.254102838 10.7350451,0 11.025,0 C11.3149549,0 11.55,0.254102838 11.55,0.567567568 L11.55,3.63243243 C11.55,3.94589716 11.3149549,4.2 11.025,4.2 Z" id="Path"></path>
                    <path d="M11.025,21 C10.7350451,21 10.5,20.7458972 10.5,20.4324324 L10.5,17.3675676 C10.5,17.0541028 10.7350451,16.8 11.025,16.8 C11.3149549,16.8 11.55,17.0541028 11.55,17.3675676 L11.55,20.4324324 C11.55,20.7458972 11.3149549,21 11.025,21 Z" id="Path"></path>
                    <path d="M3.63243243,11.55 L0.567567568,11.55 C0.254102838,11.55 0,11.3149549 0,11.025 C0,10.7350451 0.254102838,10.5 0.567567568,10.5 L3.63243243,10.5 C3.94589716,10.5 4.2,10.7350451 4.2,11.025 C4.2,11.3149549 3.94589716,11.55 3.63243243,11.55 Z" id="Path"></path>
                    <path d="M20.4324324,11.55 L17.3675676,11.55 C17.0541028,11.55 16.8,11.3149549 16.8,11.025 C16.8,10.7350451 17.0541028,10.5 17.3675676,10.5 L20.4324324,10.5 C20.7458972,10.5 21,10.7350451 21,11.025 C21,11.3149549 20.7458972,11.55 20.4324324,11.55 Z" id="Path"></path>
                    <path d="M15.236282,6.3 C15.0990415,6.3 14.9617748,6.24765493 14.857057,6.14293799 C14.6476477,5.93350464 14.6476477,5.59392804 14.857057,5.38449415 L16.934493,3.30707502 C17.1439281,3.09764166 17.4835074,3.09764166 17.692943,3.30707502 C17.9023523,3.51650837 17.9023523,3.85608496 17.692943,4.06551885 L15.615507,6.14293799 C15.5107892,6.2476544 15.3735224,6.3 15.236282,6.3 Z" id="Path"></path>
                    <path d="M3.68628199,17.85 C3.54904152,17.85 3.41177478,17.7976549 3.30705699,17.692938 C3.09764767,17.4835046 3.09764767,17.143928 3.30705699,16.9344942 L5.38449301,14.857075 C5.59392807,14.6476417 5.93350742,14.6476417 6.14294301,14.857075 C6.35235233,15.0665084 6.35235233,15.406085 6.14294301,15.6155189 L4.06550699,17.692938 C3.96078973,17.7976544 3.82352299,17.85 3.68628199,17.85 Z" id="Path"></path>
                    <path d="M5.76371801,6.3 C5.62647755,6.3 5.48921081,6.24765493 5.38449301,6.14293799 L3.30705699,4.06551885 C3.09764767,3.8560855 3.09764767,3.5165089 3.30705699,3.30707502 C3.51649204,3.09764166 3.85607139,3.09764166 4.06550699,3.30707502 L6.14294301,5.38449415 C6.35235233,5.59392751 6.35235233,5.9335041 6.14294301,6.14293799 C6.03822522,6.2476544 5.90095848,6.3 5.76371801,6.3 Z" id="Path"></path>
                    <path d="M17.313718,17.85 C17.1764776,17.85 17.0392108,17.7976549 16.934493,17.692938 L14.857057,15.6155189 C14.6476477,15.4060855 14.6476477,15.0665089 14.857057,14.857075 C15.066492,14.6476417 15.4060714,14.6476417 15.615507,14.857075 L17.692943,16.9344942 C17.9023523,17.1439275 17.9023523,17.4835041 17.692943,17.692938 C17.5882252,17.7976544 17.4509585,17.85 17.313718,17.85 Z" id="Path"></path>
                </g>
            </g>
        </g>
    </g>
</svg>