<?xml version="1.0" encoding="UTF-8"?>
<svg width="43px" height="43px" viewBox="0 0 43 43" version="1.1" xmlns="http://www.w3.org/2000/svg" xmlns:xlink="http://www.w3.org/1999/xlink">
    <!-- Generator: Sketch 54.1 (76490) - https://sketchapp.com -->
    <title>Group 4</title>
    <desc>Created with Sketch.</desc>
    <g id="Page-1" stroke="none" stroke-width="1" fill="none" fill-rule="evenodd">
        <g id="UI-Home-Light-Copy-2" transform="translate(-960.000000, -564.000000)">
            <g id="Group-4" transform="translate(960.000000, 564.000000)">
                <g id="Group-17-Copy-3" fill="#F1F1FA">
                    <circle id="Oval-Copy-5" cx="21.5" cy="21.5" r="21.5"></circle>
                </g>
                <g id="memory" transform="translate(9.000000, 14.000000)" fill="#4949BE" fill-rule="nonzero">
                    <path d="M8,10 L12,10 L12,3 L8,3 L8,10 Z M8.8,3.77777778 L11.2,3.77777778 L11.2,9.22222222 L8.8,9.22222222 L8.8,3.77777778 Z" id="Shape"></path>
                    <path d="M13,10 L17,10 L17,3 L13,3 L13,10 Z M13.8,3.77777778 L16.2,3.77777778 L16.2,9.22222222 L13.8,9.22222222 L13.8,3.77777778 Z" id="Shape"></path>
                    <path d="M3,10 L7,10 L7,3 L3,3 L3,10 Z M3.8,3.77777778 L6.2,3.77777778 L6.2,9.22222222 L3.8,9.22222222 L3.8,3.77777778 Z" id="Shape"></path>
                    <path d="M18,10 L22,10 L22,3 L18,3 L18,10 Z M18.8,3.77777778 L21.2,3.77777778 L21.2,9.22222222 L18.8,9.22222222 L18.8,3.77777778 Z" id="Shape"></path>
                    <path d="M24.5833333,5.05263158 C24.8134375,5.05263158 25,4.86410526 25,4.63157895 L25,1.26315789 C25,0.565526316 24.4403646,0 23.75,0 L1.25,0 C0.559635417,0 0,0.565526316 0,1.26315789 L0,4.63157895 C0,4.86410526 0.1865625,5.05263158 0.416666667,5.05263158 C0.646770833,5.05263158 0.833333333,5.24115789 0.833333333,5.47368421 C0.833333333,5.70621053 0.646770833,5.89473684 0.416666667,5.89473684 C0.1865625,5.89473684 0,6.08326316 0,6.31578947 L0,12.2105263 C0,12.4430526 0.1865625,12.6315789 0.416666667,12.6315789 L2.08333333,12.6315789 L2.08333333,15.5789474 C2.08333333,15.8114737 2.26989583,16 2.5,16 L9.16666667,16 C9.39677083,16 9.58333333,15.8114737 9.58333333,15.5789474 L9.58333333,14.7368421 C9.58333333,14.5043158 9.76989583,14.3157895 10,14.3157895 C10.1123958,14.3154211 10.2199479,14.3620526 10.2970833,14.4446316 C10.374375,14.5217368 10.4175,14.6271053 10.4166667,14.7368421 L10.4166667,15.5789474 C10.4166667,15.8114737 10.6032292,16 10.8333333,16 L22.5,16 C22.7301042,16 22.9166667,15.8114737 22.9166667,15.5789474 L22.9166667,12.6315789 L24.5833333,12.6315789 C24.8134375,12.6315789 25,12.4430526 25,12.2105263 L25,6.31578947 C25,6.08326316 24.8134375,5.89473684 24.5833333,5.89473684 C24.3532292,5.89473684 24.1666667,5.70621053 24.1666667,5.47368421 C24.1666667,5.24115789 24.3532292,5.05263158 24.5833333,5.05263158 Z M22.0833333,15.1578947 L21.25,15.1578947 L21.25,13.4736842 L20.4166667,13.4736842 L20.4166667,15.1578947 L19.5833333,15.1578947 L19.5833333,13.4736842 L18.75,13.4736842 L18.75,15.1578947 L17.9166667,15.1578947 L17.9166667,13.4736842 L17.0833333,13.4736842 L17.0833333,15.1578947 L16.25,15.1578947 L16.25,13.4736842 L15.4166667,13.4736842 L15.4166667,15.1578947 L14.5833333,15.1578947 L14.5833333,13.4736842 L13.75,13.4736842 L13.75,15.1578947 L12.9166667,15.1578947 L12.9166667,13.4736842 L12.0833333,13.4736842 L12.0833333,15.1578947 L11.25,15.1578947 L11.25,14.7368421 C11.2470312,14.0404737 10.6891146,13.4766842 10,13.4736842 C9.30963542,13.4736842 8.75,14.0392105 8.75,14.7368421 L8.75,15.1578947 L7.91666667,15.1578947 L7.91666667,13.4736842 L7.08333333,13.4736842 L7.08333333,15.1578947 L6.25,15.1578947 L6.25,13.4736842 L5.41666667,13.4736842 L5.41666667,15.1578947 L4.58333333,15.1578947 L4.58333333,13.4736842 L3.75,13.4736842 L3.75,15.1578947 L2.91666667,15.1578947 L2.91666667,12.6315789 L22.0833333,12.6315789 L22.0833333,15.1578947 Z M24.1666667,4.28252632 C23.5156771,4.51468421 23.1741667,5.23621053 23.4039062,5.89405263 C23.5297396,6.25431579 23.8101562,6.53768421 24.1666667,6.66484211 L24.1666667,11.7894737 L0.833333333,11.7894737 L0.833333333,6.66484211 C1.48432292,6.43268421 1.82583333,5.71115789 1.59609375,5.05331579 C1.47026042,4.69305263 1.18984375,4.40968421 0.833333333,4.28252632 L0.833333333,1.26315789 C0.833333333,1.03063158 1.01989583,0.842105263 1.25,0.842105263 L23.75,0.842105263 C23.9801042,0.842105263 24.1666667,1.03063158 24.1666667,1.26315789 L24.1666667,4.28252632 Z" id="Shape"></path>
                </g>
            </g>
        </g>
    </g>
</svg>