<?xml version="1.0" encoding="UTF-8"?>
<svg width="43px" height="43px" viewBox="0 0 43 43" version="1.1" xmlns="http://www.w3.org/2000/svg" xmlns:xlink="http://www.w3.org/1999/xlink">
    <!-- Generator: Sketch 54.1 (76490) - https://sketchapp.com -->
    <title>Group 18</title>
    <desc>Created with Sketch.</desc>
    <g id="Page-1" stroke="none" stroke-width="1" fill="none" fill-rule="evenodd">
        <g id="UI-Home-Light" transform="translate(-1095.000000, -474.000000)">
            <g id="Group-18" transform="translate(1095.000000, 474.000000)">
                <circle id="Oval-Copy-6" fill="#FFE5EA" cx="21.5" cy="21.5" r="21.5"></circle>
                <g id="movie-play-button" transform="translate(13.000000, 13.000000)" fill-rule="nonzero" stroke="#FE7892">
                    <path d="M16.875,0 L1.125,0 C0.503191406,0 0,0.50371875 0,1.125 L0,16.875 C0,17.4968438 0.503191406,18 1.125,18 L16.875,18 C17.4968438,18 18,17.4968438 18,16.875 L18,1.125 C18,0.50371875 17.4968438,0 16.875,0 Z M11.25,1.125 L12.375,3.375 L10.125,3.375 L9,1.125 L11.25,1.125 Z M6.75,1.125 L7.875,3.375 L5.625,3.375 L4.5,1.125 L6.75,1.125 Z M1.125,1.125 L2.25,1.125 L3.375,3.375 L1.125,3.375 L1.125,1.125 Z M16.875,16.875 L1.125,16.875 L1.125,4.5 L16.875,4.5 L16.875,16.875 Z M16.875,3.375 L14.625,3.375 L13.5,1.125 L15.75,1.125 L16.875,2.25 L16.875,3.375 Z M12.4936523,10.1843438 C13.0473633,10.4611992 13.0473633,10.9138359 12.4936523,11.1906914 L6.63134766,14.1218438 C6.07763672,14.3986641 5.625,14.1185391 5.625,13.5 L5.625,7.875 C5.625,7.25646094 6.07763672,6.97630078 6.63134766,7.25315625 L12.4936523,10.1843438 Z" id="Shape"></path>
                </g>
            </g>
        </g>
    </g>
</svg>