<?xml version="1.0" encoding="UTF-8"?>
<svg width="43px" height="43px" viewBox="0 0 43 43" version="1.1" xmlns="http://www.w3.org/2000/svg" xmlns:xlink="http://www.w3.org/1999/xlink">
    <!-- Generator: Sketch 54.1 (76490) - https://sketchapp.com -->
    <title>Group 5</title>
    <desc>Created with Sketch.</desc>
    <g id="Page-1" stroke="none" stroke-width="1" fill="none" fill-rule="evenodd">
        <g id="UI-Home-Light-Copy-2" transform="translate(-1023.000000, -564.000000)">
            <g id="Group-5" transform="translate(1023.000000, 564.000000)">
                <g id="Group-17-Copy-4" fill="#F1F1FA">
                    <circle id="Oval-Copy-5" cx="21.5" cy="21.5" r="21.5"></circle>
                </g>
                <g id="sd-card" transform="translate(15.000000, 12.000000)" fill="#4949BE" fill-rule="nonzero">
                    <path d="M14.8198198,14 L13.3783784,12.8181818 L13.3783784,10.6818182 L14.5495495,10.6818182 C14.6846847,10.6818182 14.7747748,10.6363636 14.8648649,10.5454545 C14.954955,10.4545455 15,10.3636364 15,10.2272727 L15,7.5 C15,7.36363636 14.954955,7.27272727 14.8648649,7.18181818 L13.3783784,5.77272727 L13.3783784,1.04545455 C13.3783784,0.454545455 12.9279279,0 12.3873874,0 L0.990990991,0 C0.45045045,0 0,0.454545455 0,1.04545455 L0,18.9545455 C0.045045045,19.5 0.45045045,20 0.990990991,20 L14.009009,20 C14.5495495,20 15,19.5454545 15,18.9545455 L15,14.3636364 C15,14.2272727 14.954955,14.0909091 14.8198198,14 Z M14.0990991,18.9545455 C14.0990991,19.0454545 14.0540541,19.0909091 14.009009,19.0909091 L0.990990991,19.0909091 C0.945945946,19.0909091 0.900900901,19.0454545 0.900900901,18.9545455 L0.900900901,1.04545455 L0.945945946,1.04545455 C0.945945946,0.954545455 0.990990991,0.909090909 1.03603604,0.909090909 L12.4324324,0.909090909 C12.4774775,0.909090909 12.5225225,0.954545455 12.5225225,1.04545455 L12.5225225,6 C12.5225225,6.13636364 12.5675676,6.22727273 12.6576577,6.31818182 L14.0990991,7.72727273 L14.0990991,9.77272727 L12.9279279,9.77272727 C12.7927928,9.77272727 12.7027027,9.81818182 12.6126126,9.90909091 C12.5225225,10 12.4774775,10.0909091 12.4774775,10.2272727 L12.4774775,13.0454545 C12.4774775,13.1818182 12.5225225,13.3181818 12.6576577,13.4090909 L14.0990991,14.5909091 L14.0990991,18.9545455 L14.0990991,18.9545455 Z" id="Shape"></path>
                    <path d="M2.5,2 C2.2,2 2,2.18604651 2,2.46511628 L2,5.53488372 C2,5.76744186 2.25,6 2.5,6 C2.8,6 3,5.81395349 3,5.53488372 L3,2.46511628 C3,2.18604651 2.8,2 2.5,2 Z" id="Path"></path>
                    <path d="M4.5,2 C4.2,2 4,2.18604651 4,2.46511628 L4,5.53488372 C4,5.76744186 4.25,6 4.5,6 C4.8,6 5,5.81395349 5,5.53488372 L5,2.46511628 C5,2.18604651 4.8,2 4.5,2 Z" id="Path"></path>
                    <path d="M6.5,2 C6.2,2 6,2.18604651 6,2.46511628 L6,5.53488372 C6,5.76744186 6.25,6 6.5,6 C6.8,6 7,5.81395349 7,5.53488372 L7,2.46511628 C7,2.18604651 6.8,2 6.5,2 Z" id="Path"></path>
                    <path d="M8.5,2 C8.2,2 8,2.18604651 8,2.46511628 L8,5.53488372 C8,5.76744186 8.25,6 8.5,6 C8.8,6 9,5.81395349 9,5.53488372 L9,2.46511628 C9,2.18604651 8.8,2 8.5,2 Z" id="Path"></path>
                    <path d="M10.5,2 C10.2,2 10,2.18604651 10,2.46511628 L10,5.53488372 C10,5.76744186 10.25,6 10.5,6 C10.8,6 11,5.81395349 11,5.53488372 L11,2.46511628 C11,2.18604651 10.8,2 10.5,2 Z" id="Path"></path>
                </g>
            </g>
        </g>
    </g>
</svg>