<?xml version="1.0" encoding="UTF-8"?>
<svg width="21px" height="21px" viewBox="0 0 21 21" version="1.1" xmlns="http://www.w3.org/2000/svg" xmlns:xlink="http://www.w3.org/1999/xlink">
    <!-- Generator: Sketch 54.1 (76490) - https://sketchapp.com -->
    <title>Cog, Wheel, Gear, Setting</title>
    <desc>Created with Sketch.</desc>
    <g id="Page-1" stroke="none" stroke-width="1" fill="none" fill-rule="evenodd">
        <g id="UI-Home-Light" transform="translate(-1274.000000, -79.000000)" fill-rule="nonzero" stroke="#FFFFFF">
            <g id="Cog,-Wheel,-Gear,-Setting" transform="translate(1275.000000, 80.000000)">
                <path d="M12.6666667,9.5 C12.6666667,8.62586806 12.3574219,7.87955729 11.7389323,7.26106771 C11.1204427,6.64257813 10.3741319,6.33333333 9.5,6.33333333 C8.62586806,6.33333333 7.87955729,6.64257813 7.26106771,7.26106771 C6.64257813,7.87955729 6.33333333,8.62586806 6.33333333,9.5 C6.33333333,10.3741319 6.64257813,11.1204427 7.26106771,11.7389323 C7.87955729,12.3574219 8.62586806,12.6666667 9.5,12.6666667 C10.3741319,12.6666667 11.1204427,12.3574219 11.7389323,11.7389323 C12.3574219,11.1204427 12.6666667,10.3741319 12.6666667,9.5 Z M19,8.15169271 L19,10.8977865 C19,10.9967448 18.9670139,11.0915799 18.9010417,11.1822917 C18.8350694,11.2730035 18.7526042,11.3266059 18.6536458,11.343099 L16.3652344,11.6894531 C16.2085503,12.1347656 16.0477431,12.5099826 15.8828125,12.8151042 C16.171441,13.2274306 16.6126302,13.796441 17.2063802,14.5221354 C17.2888455,14.6210937 17.3300781,14.7241753 17.3300781,14.8313802 C17.3300781,14.9385851 17.2929687,15.0334201 17.21875,15.1158854 C16.9960937,15.4210069 16.5878906,15.8663194 15.9941406,16.4518229 C15.4003906,17.0373264 15.0128038,17.3300781 14.8313802,17.3300781 C14.7324219,17.3300781 14.625217,17.2929687 14.5097656,17.21875 L12.8027344,15.8828125 C12.4398872,16.0724826 12.0646701,16.2291667 11.6770833,16.3528646 C11.5451389,17.4743924 11.4255642,18.2413194 11.3183594,18.6536458 C11.2606337,18.8845486 11.1121962,19 10.8730469,19 L8.12695312,19 C8.01150174,19 7.91048177,18.9649523 7.82389323,18.8948568 C7.73730469,18.8247613 7.68988715,18.7361111 7.68164062,18.6289062 L7.33528646,16.3528646 C6.9312066,16.2209201 6.56011285,16.0683594 6.22200521,15.8951823 L4.47786458,17.21875 C4.39539931,17.2929687 4.29231771,17.3300781 4.16861979,17.3300781 C4.0531684,17.3300781 3.95008681,17.2847222 3.859375,17.1940104 C2.8203125,16.2539062 2.13997396,15.5611979 1.81835937,15.1158854 C1.76063368,15.0334201 1.73177083,14.9385851 1.73177083,14.8313802 C1.73177083,14.7324219 1.76475694,14.6375868 1.83072917,14.546875 C1.95442708,14.3736979 2.16471354,14.0995009 2.46158854,13.7242839 C2.75846354,13.3490668 2.98111979,13.0583767 3.12955729,12.8522135 C2.90690104,12.4398872 2.73784722,12.031684 2.62239583,11.6276042 L0.358723958,11.2936198 C0.251519097,11.2771267 0.164930556,11.2255859 0.0989583333,11.1389974 C0.0329861111,11.0524089 0,10.9555122 0,10.8483073 L0,8.10221354 C0,8.00325521 0.0329861111,7.90842014 0.0989583333,7.81770833 C0.164930556,7.72699653 0.243272569,7.6733941 0.333984375,7.65690104 L2.63476562,7.31054687 C2.75021701,6.9312066 2.91102431,6.55186632 3.1171875,6.17252604 C2.78732639,5.70247396 2.34613715,5.13346354 1.79361979,4.46549479 C1.71115451,4.36653646 1.66992187,4.26757812 1.66992187,4.16861979 C1.66992187,4.08615451 1.70703125,3.99131944 1.78125,3.88411458 C1.99565972,3.58723958 2.40180122,3.14398872 2.99967448,2.55436198 C3.59754774,1.96473524 3.98719618,1.66992187 4.16861979,1.66992187 C4.27582465,1.66992187 4.38302951,1.71115451 4.49023437,1.79361979 L6.19726562,3.1171875 C6.56011285,2.92751736 6.93532986,2.77083333 7.32291667,2.64713542 C7.45486111,1.52560764 7.57443576,0.758680556 7.68164062,0.346354167 C7.73936632,0.115451389 7.88780382,0 8.12695312,0 L10.8730469,0 C10.9884983,0 11.0895182,0.0350477431 11.1761068,0.105143229 C11.2626953,0.175238715 11.3101128,0.263888889 11.3183594,0.37109375 L11.6647135,2.64713542 C12.0687934,2.77907986 12.4398872,2.93164062 12.7779948,3.10481771 L14.5345052,1.78125 C14.608724,1.70703125 14.7076823,1.66992187 14.8313802,1.66992187 C14.9385851,1.66992187 15.0416667,1.71115451 15.140625,1.79361979 C16.2044271,2.7749566 16.8847656,3.47591146 17.1816406,3.89648437 C17.2393663,3.9624566 17.2682292,4.0531684 17.2682292,4.16861979 C17.2682292,4.26757812 17.2352431,4.36241319 17.1692708,4.453125 C17.0455729,4.62630208 16.8352865,4.90049913 16.5384115,5.27571615 C16.2415365,5.65093316 16.0188802,5.94162326 15.8704427,6.14778646 C16.0848524,6.56011285 16.2539062,6.96419271 16.3776042,7.36002604 L18.641276,7.70638021 C18.7484809,7.72287326 18.8350694,7.77441406 18.9010417,7.8610026 C18.9670139,7.94759115 19,8.04448785 19,8.15169271 Z" id="Shape"></path>
            </g>
        </g>
    </g>
</svg>